# xmcd
#
# Track frame offsets:
# 150
# 11605
# 24423
# 44356
# 54926
# 71549
# 87400
# 100550
# 118059
# 131995
# 144899
# 154315
# 170391
#
# Disc length: 2412 seconds
#
#
# Revision: 0
# Processed by: cddbd v1.5.2PL0 Copyright (c) Steve Scherf et al.
# Submitted via: FreeRIP 2.96 
#
DISCID=a6096a0d
DTITLE=wilk and friends - the best of ...
DYEAR=1900
DGENRE=Country
TTITLE0=highway family
TTITLE1=frei und ledig
TTITLE2=das waren zeitn
TTITLE3=waiting for a train
TTITLE4=rocky mountain music
TTITLE5=stell dein herz auf empfang
TTITLE6=lebenslauf
TTITLE7=evangelia
TTITLE8=brothers jukebox
TTITLE9=upn down
TTITLE10=money song
TTITLE11=blick
TTITLE12=dixie
EXTD=
EXTT0=
EXTT1=
EXTT2=
EXTT3=
EXTT4=
EXTT5=
EXTT6=
EXTT7=
EXTT8=
EXTT9=
EXTT10=
EXTT11=
EXTT12=
PLAYORDER=
